<svg width="25" height="24" viewBox="0 0 25 24" fill="none" xmlns="http://www.w3.org/2000/svg">
<path d="M17.6665 2L17.6665 13M22.6665 11L22.6665 4C22.6665 2.89543 21.7711 2 20.6665 2L7.24026 2C5.75955 2 4.5003 3.08033 4.27515 4.54383L3.19822 11.5438C2.91864 13.3611 4.32468 15 6.16334 15H9.6665C10.2188 15 10.6665 15.4477 10.6665 16V19.5342C10.6665 20.896 11.7705 22 13.1323 22C13.4572 22 13.7515 21.8087 13.8834 21.5119L17.4026 13.5939C17.5631 13.2327 17.9212 13 18.3164 13H20.6665C21.7711 13 22.6665 12.1046 22.6665 11Z" stroke="#bdbdbd" stroke-width="2" stroke-linecap="round" stroke-linejoin="round"/>
</svg>
