<svg width="25" height="24" viewBox="0 0 25 24" fill="none" xmlns="http://www.w3.org/2000/svg">
<path d="M7.6665 22V11M2.6665 13V20C2.6665 21.1046 3.56193 22 4.6665 22H18.0927C19.5735 22 20.8327 20.9197 21.0579 19.4562L22.1348 12.4562C22.4144 10.6389 21.0083 9 19.1697 9H15.6665C15.1142 9 14.6665 8.55228 14.6665 8V4.46584C14.6665 3.10399 13.5625 2 12.2007 2C11.8758 2 11.5815 2.1913 11.4496 2.48812L7.93044 10.4061C7.76994 10.7673 7.41182 11 7.01663 11H4.6665C3.56193 11 2.6665 11.8954 2.6665 13Z" stroke="#bdbdbd" stroke-width="2" stroke-linecap="round" stroke-linejoin="round"/>
</svg>
