<svg width="25" height="24" viewBox="0 0 25 24" fill="none" xmlns="http://www.w3.org/2000/svg">
<g clip-path="url(#clip0_1590_22548)">
<path d="M7.37254 11.7366C7.43163 11.8995 7.43163 12.078 7.37254 12.241L4.46629 20.745C4.41434 20.8886 4.40743 21.0446 4.4465 21.1922C4.48556 21.3398 4.56874 21.4719 4.68492 21.571C4.8011 21.67 4.94474 21.7313 5.09665 21.7465C5.24856 21.7617 5.4015 21.7303 5.53504 21.6563L21.285 12.6478C21.4023 12.583 21.5 12.4879 21.568 12.3725C21.6361 12.2571 21.672 12.1256 21.672 11.9916C21.672 11.8576 21.6361 11.7261 21.568 11.6107C21.5 11.4953 21.4023 11.4002 21.285 11.3353L5.53504 2.34939C5.40183 2.27489 5.24906 2.2428 5.09713 2.25741C4.9452 2.27203 4.80135 2.33265 4.68478 2.43118C4.56821 2.52971 4.48448 2.66146 4.44477 2.80884C4.40506 2.95621 4.41126 3.11219 4.46254 3.25595L7.37254 11.7366Z" stroke="white" stroke-width="1.5" stroke-linecap="round" stroke-linejoin="round"/>
<path d="M13.4165 12H7.4165" stroke="white" stroke-width="1.5" stroke-linecap="round" stroke-linejoin="round"/>
</g>
<defs>
<clipPath id="clip0_1590_22548">
<rect width="24" height="24" fill="white" transform="translate(0.666504)"/>
</clipPath>
</defs>
</svg>
