<svg width="25" height="24" viewBox="0 0 25 24" fill="none" xmlns="http://www.w3.org/2000/svg">
<g clip-path="url(#clip0_1590_22484)">
<path d="M12.6665 21C17.6371 21 21.6665 16.9706 21.6665 12C21.6665 7.02944 17.6371 3 12.6665 3C7.69594 3 3.6665 7.02944 3.6665 12C3.6665 16.9706 7.69594 21 12.6665 21Z" stroke="white" stroke-width="1.5" stroke-linecap="round" stroke-linejoin="round"/>
<path d="M12.6665 15C14.7376 15 16.4165 13.3211 16.4165 11.25C16.4165 9.17893 14.7376 7.5 12.6665 7.5C10.5954 7.5 8.9165 9.17893 8.9165 11.25C8.9165 13.3211 10.5954 15 12.6665 15Z" stroke="white" stroke-width="1.5" stroke-linecap="round" stroke-linejoin="round"/>
<path d="M6.64795 18.6909C7.21224 17.5795 8.07329 16.6459 9.13564 15.9939C10.198 15.3418 11.4202 14.9966 12.6667 14.9966C13.9132 14.9966 15.1354 15.3418 16.1978 15.9939C17.2601 16.6459 18.1212 17.5795 18.6854 18.6909" stroke="white" stroke-width="1.5" stroke-linecap="round" stroke-linejoin="round"/>
</g>
<defs>
<clipPath id="clip0_1590_22484">
<rect width="24" height="24" fill="white" transform="translate(0.666504)"/>
</clipPath>
</defs>
</svg>
